<svg width="20" height="21" viewBox="0 0 20 21" fill="none" xmlns="http://www.w3.org/2000/svg">
<g opacity="0.65">
<path fill-rule="evenodd" clip-rule="evenodd" d="M8.48583 18.9682V11.5782H6V8.6982H8.48583V6.5782C8.43585 6.07496 8.49632 5.56687 8.663 5.08941C8.82969 4.61194 9.09858 4.17662 9.4509 3.81382C9.80322 3.45102 10.2305 3.1695 10.7029 2.9889C11.1752 2.8083 11.6813 2.73298 12.1858 2.7682C12.9284 2.76382 13.6706 2.80389 14.4083 2.8882V5.4582H12.8833C12.6897 5.41713 12.4889 5.4246 12.2989 5.47993C12.1088 5.53526 11.9354 5.63675 11.7941 5.77535C11.6528 5.91394 11.5479 6.08534 11.4889 6.27428C11.4299 6.46321 11.4185 6.66381 11.4558 6.8582V8.6982H14.3083L13.9358 11.5782H11.4608V18.9682H8.48583Z" fill="#1C1C1C"/>
</g>
</svg>
