<svg width="20" height="21" viewBox="0 0 20 21" fill="none" xmlns="http://www.w3.org/2000/svg">
<g opacity="0.65">
<path fill-rule="evenodd" clip-rule="evenodd" d="M10 2.75977C7.8275 2.75977 7.555 2.76893 6.70167 2.8081C5.85 2.84643 5.26833 2.98227 4.76 3.17977C4.22631 3.38059 3.74286 3.69541 3.34333 4.10227C2.9362 4.50172 2.62109 4.98518 2.42 5.51893C2.2225 6.0281 2.08667 6.6106 2.04833 7.46143C2.00833 8.31477 2 8.58643 2 10.7598C2 12.9323 2.00917 13.2048 2.04833 14.0581C2.08667 14.9098 2.2225 15.4914 2.42 15.9998C2.62085 16.5334 2.93566 17.0169 3.3425 17.4164C3.7875 17.8623 4.23417 18.1356 4.75917 18.3398C5.26833 18.5373 5.85 18.6731 6.70083 18.7114C7.555 18.7506 7.8275 18.7598 10 18.7598C12.1725 18.7598 12.445 18.7506 13.2983 18.7114C14.15 18.6731 14.7317 18.5373 15.24 18.3398C15.7737 18.1389 16.2571 17.8241 16.6567 17.4173C17.0638 17.0178 17.3789 16.5343 17.58 16.0006C17.7775 15.4914 17.9133 14.9089 17.9517 14.0589C17.9908 13.2048 18 12.9323 18 10.7598C18 8.58727 17.9908 8.31477 17.9517 7.46143C17.9125 6.60977 17.7775 6.0281 17.58 5.51977C17.3792 4.98609 17.0643 4.50264 16.6575 4.1031C16.2581 3.69594 15.7746 3.38084 15.2408 3.17977C14.7317 2.98227 14.1492 2.84643 13.2983 2.8081C12.445 2.7681 12.1733 2.75977 10 2.75977ZM10 4.20143C12.1358 4.20143 12.3892 4.20977 13.2333 4.2481C14.0125 4.2831 14.4358 4.41393 14.7183 4.5231C15.0917 4.6681 15.3583 4.84143 15.6383 5.12143C15.9183 5.40143 16.0917 5.6681 16.2367 6.04143C16.3458 6.3231 16.4758 6.74727 16.5117 7.52727C16.55 8.3706 16.5583 8.62393 16.5583 10.7598C16.5583 12.8956 16.55 13.1489 16.5117 13.9931C16.4758 14.7723 16.3458 15.1964 16.2367 15.4781C16.1082 15.8257 15.9035 16.1401 15.6375 16.3981C15.3796 16.6637 15.0656 16.8681 14.7183 16.9964C14.4358 17.1056 14.0125 17.2364 13.2325 17.2714C12.3892 17.3098 12.1358 17.3181 9.99917 17.3181C7.86333 17.3181 7.61083 17.3098 6.7675 17.2714C5.9875 17.2364 5.56333 17.1056 5.28167 16.9964C4.93414 16.8682 4.61977 16.6638 4.36167 16.3981C4.09598 16.14 3.89152 15.8256 3.76333 15.4781C3.65417 15.1964 3.52333 14.7723 3.48833 13.9923C3.44917 13.1489 3.44167 12.8956 3.44167 10.7598C3.44167 8.62393 3.45 8.3706 3.48833 7.52643C3.52333 6.74727 3.65417 6.32393 3.76333 6.04143C3.90833 5.6681 4.08167 5.40143 4.36167 5.12143C4.61977 4.85574 4.93414 4.65128 5.28167 4.5231C5.56333 4.41393 5.9875 4.2831 6.7675 4.2481C7.61083 4.20977 7.86417 4.20143 10 4.20143ZM10 13.4264C9.29276 13.4264 8.61448 13.1455 8.11438 12.6454C7.61428 12.1453 7.33333 11.467 7.33333 10.7598C7.33333 10.0525 7.61428 9.37424 8.11438 8.87415C8.61448 8.37405 9.29276 8.0931 10 8.0931C10.7072 8.0931 11.3855 8.37405 11.8856 8.87415C12.3857 9.37424 12.6667 10.0525 12.6667 10.7598C12.6667 11.467 12.3857 12.1453 11.8856 12.6454C11.3855 13.1455 10.7072 13.4264 10 13.4264ZM10 6.65143C9.46049 6.65143 8.92625 6.7577 8.42781 6.96416C7.92936 7.17062 7.47646 7.47324 7.09497 7.85474C6.71348 8.23623 6.41086 8.68913 6.20439 9.18757C5.99793 9.68602 5.89167 10.2203 5.89167 10.7598C5.89167 11.2993 5.99793 11.8335 6.20439 12.332C6.41086 12.8304 6.71348 13.2833 7.09497 13.6648C7.47646 14.0463 7.92936 14.3489 8.42781 14.5554C8.92625 14.7618 9.46049 14.8681 10 14.8681C11.0896 14.8681 12.1346 14.4353 12.905 13.6648C13.6755 12.8943 14.1083 11.8494 14.1083 10.7598C14.1083 9.67017 13.6755 8.6252 12.905 7.85474C12.1346 7.08427 11.0896 6.65143 10 6.65143ZM15.23 6.48977C15.23 6.74437 15.1289 6.98855 14.9488 7.16859C14.7688 7.34862 14.5246 7.44977 14.27 7.44977C14.0154 7.44977 13.7712 7.34862 13.5912 7.16859C13.4111 6.98855 13.31 6.74437 13.31 6.48977C13.31 6.23516 13.4111 5.99098 13.5912 5.81094C13.7712 5.63091 14.0154 5.52977 14.27 5.52977C14.5246 5.52977 14.7688 5.63091 14.9488 5.81094C15.1289 5.99098 15.23 6.23516 15.23 6.48977Z" fill="#4B4048"/>
</g>
</svg>
