<svg width="32" height="33" viewBox="0 0 32 33" fill="none" xmlns="http://www.w3.org/2000/svg">
<path d="M21 31.2639C21 30.2031 20.5786 29.1856 19.8284 28.4355C19.0783 27.6853 18.0609 27.2639 17 27.2639H12C12 26.2031 11.5786 25.1856 10.8284 24.4355C10.0783 23.6853 9.06087 23.2639 8 23.2639H1V31.2639H21Z" stroke="#4B4048" stroke-width="2" stroke-linecap="round" stroke-linejoin="round"/>
<path d="M8 27.2639H12M15 23.2639H28C28.2652 23.2639 28.5196 23.1586 28.7071 22.971C28.8946 22.7835 29 22.5291 29 22.2639V13.2639M11 13.2639V19.2639" stroke="#4B4048" stroke-width="2" stroke-linecap="round" stroke-linejoin="round"/>
<path d="M9 9.26392C9 8.9987 9.10536 8.74435 9.29289 8.55681C9.48043 8.36927 9.73478 8.26392 10 8.26392H30C30.2652 8.26392 30.5196 8.36927 30.7071 8.55681C30.8946 8.74435 31 8.9987 31 9.26392V12.2639C31 12.5291 30.8946 12.7835 30.7071 12.971C30.5196 13.1586 30.2652 13.2639 30 13.2639H10C9.73478 13.2639 9.48043 13.1586 9.29289 12.971C9.10536 12.7835 9 12.5291 9 12.2639V9.26392Z" stroke="#4B4048" stroke-width="2" stroke-linecap="round" stroke-linejoin="round"/>
<path d="M20 23.2639V8.26392" stroke="#4B4048" stroke-width="2" stroke-linecap="round" stroke-linejoin="round"/>
<path d="M25.6868 5.43593C24.0112 6.74995 22.0873 7.71186 20.0308 8.26393C20.5829 6.20737 21.5448 4.28355 22.8588 2.60793C24.6174 0.850599 25.6134 1.11993 26.4001 1.90127C27.1868 2.6826 27.4454 3.6786 25.6868 5.43593ZM14.3121 5.43593C15.9881 6.74927 17.9121 7.71193 19.9681 8.26393C19.4166 6.20714 18.4546 4.2832 17.1401 2.60793C15.3828 0.850599 14.3868 1.11993 13.6001 1.90127C12.8134 2.6826 12.5548 3.6786 14.3121 5.43593Z" stroke="#4B4048" stroke-width="2" stroke-linecap="round" stroke-linejoin="round"/>
</svg>
