<svg width="32" height="33" viewBox="0 0 32 33" fill="none" xmlns="http://www.w3.org/2000/svg">
<path d="M16 31.28C24.284 31.28 31 24.564 31 16.28C31 7.99603 24.284 1.28003 16 1.28003C7.716 1.28003 1 7.99603 1 16.28C1 24.564 7.716 31.28 16 31.28Z" stroke="#4B4048" stroke-width="2" stroke-linecap="round" stroke-linejoin="round"/>
<path d="M24.064 20.28C23.3192 21.783 22.1694 23.0481 20.7441 23.9325C19.3188 24.8169 17.6747 25.2856 15.9973 25.2856C14.3199 25.2856 12.6759 24.8169 11.2506 23.9325C9.82528 23.0481 8.67542 21.783 7.93066 20.28M11 11.78C11.1326 11.78 11.2598 11.8327 11.3536 11.9265C11.4473 12.0202 11.5 12.1474 11.5 12.28C11.5 12.4126 11.4473 12.5398 11.3536 12.6336C11.2598 12.7274 11.1326 12.78 11 12.78C10.8674 12.78 10.7402 12.7274 10.6464 12.6336C10.5527 12.5398 10.5 12.4126 10.5 12.28C10.5 12.1474 10.5527 12.0202 10.6464 11.9265C10.7402 11.8327 10.8674 11.78 11 11.78ZM21 11.78C21.1326 11.78 21.2598 11.8327 21.3536 11.9265C21.4473 12.0202 21.5 12.1474 21.5 12.28C21.5 12.4126 21.4473 12.5398 21.3536 12.6336C21.2598 12.7274 21.1326 12.78 21 12.78C20.8674 12.78 20.7402 12.7274 20.6464 12.6336C20.5527 12.5398 20.5 12.4126 20.5 12.28C20.5 12.1474 20.5527 12.0202 20.6464 11.9265C20.7402 11.8327 20.8674 11.78 21 11.78Z" stroke="#4B4048" stroke-width="2" stroke-linecap="round" stroke-linejoin="round"/>
</svg>
