<svg width="32" height="33" viewBox="0 0 32 33" fill="none" xmlns="http://www.w3.org/2000/svg">
<path d="M16.9266 2.51477L21.1906 10.9601L29.396 11.7734C29.591 11.7902 29.7772 11.8625 29.9325 11.9816C30.0879 12.1007 30.206 12.2618 30.2728 12.4458C30.3397 12.6298 30.3525 12.829 30.3098 13.0201C30.2672 13.2111 30.1708 13.386 30.032 13.5241L23.28 20.2174L25.784 29.3108C25.8353 29.5037 25.8298 29.7074 25.7682 29.8973C25.7065 30.0872 25.5912 30.2553 25.4362 30.3812C25.2813 30.5072 25.0932 30.5856 24.8947 30.6072C24.6962 30.6288 24.4957 30.5925 24.3173 30.5028L15.9973 26.3828L7.69064 30.4974C7.51237 30.587 7.31203 30.6232 7.11369 30.6017C6.91536 30.5801 6.72745 30.5018 6.57256 30.376C6.41767 30.2503 6.30238 30.0825 6.24054 29.8928C6.17871 29.7031 6.17296 29.4996 6.22398 29.3068L8.72798 20.2121L1.97064 13.5188C1.83182 13.3806 1.73542 13.2056 1.69281 13.0145C1.65019 12.8233 1.66315 12.6239 1.73015 12.4399C1.79715 12.2558 1.9154 12.0948 2.07094 11.9758C2.22648 11.8567 2.41282 11.7847 2.60798 11.7681L10.8133 10.9548L15.0693 2.51477C15.157 2.34401 15.2901 2.20075 15.4539 2.10071C15.6178 2.00068 15.806 1.94775 15.998 1.94775C16.1899 1.94775 16.3782 2.00068 16.542 2.10071C16.7059 2.20075 16.8389 2.34401 16.9266 2.51477Z" stroke="#4B4048" stroke-width="2" stroke-linecap="round" stroke-linejoin="round"/>
</svg>
