<svg width="20" height="21" viewBox="0 0 20 21" fill="none" xmlns="http://www.w3.org/2000/svg">
<g opacity="0.65">
<path fill-rule="evenodd" clip-rule="evenodd" d="M9.80411 2.76049C12.7958 2.71549 14.6683 3.92715 15.5499 6.05215C15.8408 6.75382 16.1516 8.04382 15.9183 9.11465C15.8249 9.54132 15.7983 9.98799 15.6724 10.3897C15.4158 11.2088 15.0824 11.9338 14.6408 12.5588C14.0408 13.4088 13.1324 13.9805 11.9891 14.2688C10.9791 14.523 10.0491 14.1422 9.50911 13.733C9.33744 13.603 9.10661 13.433 9.04244 13.1972H9.01827C8.97994 13.6263 8.81494 14.0822 8.69911 14.473C8.53827 15.0147 8.50744 15.5738 8.30577 16.0805C8.08863 16.6207 7.82602 17.1414 7.52077 17.6372C7.36744 17.8888 6.94411 18.7497 6.63661 18.7597C6.60327 18.6947 6.58911 18.6697 6.58661 18.5555C6.48827 18.3972 6.55744 18.1322 6.51411 17.9172C6.44577 17.5838 6.39327 16.9813 6.46411 16.6422V16.1063C6.54411 15.738 6.54077 15.3613 6.63661 15.0088C6.84494 14.2422 6.96161 13.4297 7.17661 12.6355C7.38411 11.873 7.57411 11.0388 7.74161 10.263C7.77911 10.088 7.56661 9.58382 7.52077 9.39549C7.37577 8.80132 7.48577 7.97882 7.66744 7.53215C7.89661 6.97049 8.56744 6.11299 9.43577 6.33299C10.1341 6.50965 10.5783 7.26466 10.3441 8.22132C10.0983 9.22549 9.77994 10.1247 9.55827 11.1297C9.50161 11.3888 9.59994 11.6638 9.65661 11.8188C9.86327 12.3788 10.4899 12.9222 11.3266 12.7122C12.5933 12.393 13.1541 11.2455 13.5366 10.0072C13.6399 9.67215 13.6274 9.35632 13.7083 8.98632C13.8783 8.20715 13.8066 7.04382 13.5608 6.43549C13.1674 5.46049 12.4333 4.83549 11.4249 4.49549L10.5891 4.34299C10.1224 4.23632 9.23411 4.39632 8.91911 4.49549C7.51077 4.94132 6.63827 5.68465 6.09577 7.02215C5.91077 7.47715 5.80911 7.93882 5.77661 8.57882L5.75161 8.80882C5.85994 9.38049 5.87161 9.75882 6.09577 10.1863C6.20577 10.3963 6.46827 10.5622 6.51244 10.8238C6.53911 10.978 6.42577 11.2105 6.38994 11.3347C6.33577 11.5213 6.35577 11.7347 6.26744 11.8955C6.10744 12.1863 5.67244 11.968 5.48161 11.8447C4.48827 11.203 3.66911 9.34882 4.13161 7.55799C4.20244 7.28132 4.20661 7.04132 4.30327 6.79215C4.90577 5.25549 5.80494 4.31049 7.10244 3.50049C7.58827 3.19715 8.24411 3.04715 8.84577 2.88882L9.80327 2.76049H9.80411Z" fill="#4B4048"/>
</g>
</svg>
